<svg xmlns="http://www.w3.org/2000/svg" width="342.974" height="344" viewBox="0 0 342.974 344">
  <g id="undraw_access_account_re_8spm" transform="translate(0 -0.001)">
    <path id="Path_1" data-name="Path 1" d="M260.558,680.955l-3.021-11.913a154.678,154.678,0,0,0-16.412-5.888l-.381,5.536-1.546-6.1c-6.917-1.977-11.622-2.847-11.622-2.847s6.354,24.169,19.687,42.647l15.533,2.729-12.067,1.74a62.589,62.589,0,0,0,5.4,5.72c19.392,18,40.992,26.259,48.244,18.446s-2.59-28.738-21.982-46.737c-6.012-5.58-13.564-10.058-21.124-13.584Z" transform="translate(-227.576 -391.164)" fill="#f2f2f2"/>
    <path id="Path_2" data-name="Path 2" d="M334.906,636.456l3.572-11.759a154.662,154.662,0,0,0-11.005-13.524l-3.188,4.542,1.829-6.021c-4.9-5.266-8.478-8.443-8.478-8.443s-7.052,23.975-5.192,46.683L324.331,658.3,313.1,653.551a62.585,62.585,0,0,0,1.664,7.687c7.3,25.433,21.518,43.668,31.764,40.728s12.638-25.94,5.341-51.373c-2.262-7.884-6.412-15.622-11.062-22.546Z" transform="translate(-273.197 -359.605)" fill="#f2f2f2"/>
    <path id="Path_22" data-name="Path 22" d="M546.961,157.956h-1.884V106.338A29.876,29.876,0,0,0,515.2,76.462H405.838a29.876,29.876,0,0,0-29.876,29.876V389.522A29.876,29.876,0,0,0,405.838,419.4H515.2a29.876,29.876,0,0,0,29.876-29.876V194.7h1.884Z" transform="translate(-307.636 -76.461)" fill="#194382"/>
    <path id="Path_23" data-name="Path 23" d="M526.066,93.335H511.791a10.6,10.6,0,0,1-9.815,14.6H439.324a10.6,10.6,0,0,1-9.814-14.6H416.176a22.311,22.311,0,0,0-22.311,22.311V398.419a22.311,22.311,0,0,0,22.311,22.311H526.066a22.311,22.311,0,0,0,22.311-22.311h0V115.646a22.311,22.311,0,0,0-22.311-22.311Z" transform="translate(-317.295 -85.565)" fill="#fff"/>
    <path id="Path_6" data-name="Path 6" d="M518.045,324.771a11.253,11.253,0,0,1,5.633-9.751,11.258,11.258,0,1,0,0,19.5A11.251,11.251,0,0,1,518.045,324.771Z" transform="translate(-378.223 -204.358)" fill="#ccc"/>
    <path id="Path_7" data-name="Path 7" d="M548.783,324.77a11.253,11.253,0,0,1,5.633-9.751,11.258,11.258,0,1,0,0,19.5,11.251,11.251,0,0,1-5.631-9.748Z" transform="translate(-394.807 -204.358)" fill="#ccc"/>
    <circle id="Ellipse_1" data-name="Ellipse 1" cx="11.258" cy="11.258" r="11.258" transform="translate(156.549 109.154)" fill="#e5a604"/>
    <path id="Path_8" data-name="Path 8" d="M553.227,331.925H487.611a2.359,2.359,0,0,1-2.356-2.356V263.953a2.359,2.359,0,0,1,2.356-2.356h65.616a2.359,2.359,0,0,1,2.356,2.356v65.616A2.359,2.359,0,0,1,553.227,331.925ZM487.611,262.54a1.415,1.415,0,0,0-1.414,1.414v65.616a1.415,1.415,0,0,0,1.414,1.414h65.616a1.415,1.415,0,0,0,1.414-1.414V263.954a1.415,1.415,0,0,0-1.414-1.414Z" transform="translate(-366.604 -176.349)" fill="#ccc"/>
    <rect id="Rectangle_1" data-name="Rectangle 1" width="100.635" height="0.943" transform="translate(100.639 205.873)" fill="#ccc"/>
    <circle id="Ellipse_2" data-name="Ellipse 2" cx="3.178" cy="3.178" r="3.178" transform="translate(100.639 193.632)" fill="#e5a604"/>
    <rect id="Rectangle_2" data-name="Rectangle 2" width="100.635" height="0.943" transform="translate(100.639 237.653)" fill="#ccc"/>
    <circle id="Ellipse_3" data-name="Ellipse 3" cx="3.178" cy="3.178" r="3.178" transform="translate(100.639 225.412)" fill="#e5a604"/>
    <path id="Path_3" data-name="Path 3" d="M621,653.255h-31.8a2.074,2.074,0,0,1-2.072-2.072V640.036a2.074,2.074,0,0,1,2.072-2.072H621a2.074,2.074,0,0,1,2.072,2.072v11.147A2.074,2.074,0,0,1,621,653.255Z" transform="translate(-421.565 -379.414)" fill="#e5a604"/>
    <circle id="Ellipse_7" data-name="Ellipse 7" cx="3.178" cy="3.178" r="3.178" transform="translate(111.006 193.632)" fill="#e5a604"/>
    <circle id="Ellipse_8" data-name="Ellipse 8" cx="3.178" cy="3.178" r="3.178" transform="translate(121.373 193.632)" fill="#e5a604"/>
    <circle id="Ellipse_9" data-name="Ellipse 9" cx="3.178" cy="3.178" r="3.178" transform="translate(111.006 225.412)" fill="#e5a604"/>
    <circle id="Ellipse_10" data-name="Ellipse 10" cx="3.178" cy="3.178" r="3.178" transform="translate(121.373 225.412)" fill="#e5a604"/>
    <path id="Path_88" data-name="Path 88" d="M580.76,822.224h-330.6c-.708,0-1.281-.251-1.281-.561s.573-.561,1.281-.561h330.6c.707,0,1.281.251,1.281.561S581.467,822.224,580.76,822.224Z" transform="translate(-239.067 -478.224)" fill="#3f3d56"/>
    <path id="Path_4" data-name="Path 4" d="M784.47,549.585a4.642,4.642,0,0,1,.65.363l20.653-8.815.737-5.441,8.252-.05-.487,12.478-27.259,7.209a4.9,4.9,0,0,1-.206.556,4.713,4.713,0,1,1-2.339-6.3Z" transform="translate(-524.458 -324.207)" fill="#ffb8b8"/>
    <path id="Path_5" data-name="Path 5" d="M627.219,709.507h-5.645l-2.685-21.774h8.332Z" transform="translate(-333.914 -371.058)" fill="#ffb8b8"/>
    <path id="Path_6-2" data-name="Path 6" d="M607.931,731.518h10.887v6.855H601.076A6.855,6.855,0,0,1,607.931,731.518Z" transform="translate(-324.304 -394.682)" fill="#0a1b35"/>
    <path id="Path_7-2" data-name="Path 7" d="M672.444,706.166l-5.618.553-4.808-21.406,8.292-.817Z" transform="translate(-357.184 -369.313)" fill="#ffb8b8"/>
    <path id="Path_8-2" data-name="Path 8" d="M6.855,0H17.742V6.855H0A6.855,6.855,0,0,1,6.855,0Z" transform="translate(298.646 336.869) rotate(-5.625)" fill="#0a1b35"/>
    <circle id="Ellipse_3-2" data-name="Ellipse 3" cx="11.309" cy="11.309" r="11.309" transform="translate(283.567 165.772)" fill="#ffb8b8"/>
    <path id="Path_9" data-name="Path 9" d="M832.283,708.661a2.059,2.059,0,0,1-2.033-1.7c-2.922-16.22-12.473-69.256-12.7-70.725a.655.655,0,0,1-.007-.1v-3.954a.686.686,0,0,1,.129-.4l1.262-1.767a.681.681,0,0,1,.527-.288c7.193-.337,30.752-1.326,31.89.1h0c1.143,1.429.739,5.759.647,6.612l0,.089L862.583,704.2a2.078,2.078,0,0,1-1.711,2.364l-6.611,1.089a2.082,2.082,0,0,1-2.314-1.424c-2.045-6.533-8.9-28.511-11.276-37.015a.23.23,0,0,0-.451.064c.119,8.107.406,28.79.5,35.933l.011.769a2.08,2.08,0,0,1-1.885,2.089l-6.375.579C832.412,708.659,832.347,708.661,832.283,708.661Z" transform="translate(-545.885 -374.616)" fill="#194382"/>
    <path id="Path_99" data-name="Path 99" d="M834.027,494.021a9.456,9.456,0,0,0-3.832,5.523,52.34,52.34,0,0,0-2.249,12.506l-.716,12.709-8.866,33.692c7.684,6.5,12.117,5.024,22.461-.294s11.526,1.773,11.526,1.773l2.069-28.668,2.955-31.326a13.888,13.888,0,0,0-2.238-2.152,22.866,22.866,0,0,0-19.543-4.142Z" transform="translate(-546.329 -301.183)" fill="#707070"/>
    <path id="Path_10" data-name="Path 10" d="M838.506,561.936a4.851,4.851,0,0,1,.691.324l20.421-10.221.339-5.537,8.424-.581.451,12.622-27.29,9.024a4.833,4.833,0,1,1-3.036-5.632Z" transform="translate(-553.688 -329.753)" fill="#ffb8b8"/>
    <path id="Path_101" data-name="Path 101" d="M890.11,507.7c5.024,1.773,5.909,20.985,5.909,20.985-5.911-3.251-13,2.069-13,2.069s-1.478-5.024-3.251-11.526a11.3,11.3,0,0,1,2.364-10.64S885.086,505.922,890.11,507.7Z" transform="translate(-579.211 -308.8)" fill="#707070"/>
    <path id="Path_102" data-name="Path 102" d="M864.862,445.529c-1.409-1.127-3.332.922-3.332.922L860.4,436.305s-7.046.844-11.555-.282-5.214,4.087-5.214,4.087a36.183,36.183,0,0,1-.141-6.341c.282-2.536,3.945-5.073,10.427-6.764s9.864,5.636,9.864,5.636C868.295,434.9,866.271,446.656,864.862,445.529Z" transform="translate(-559.846 -265.457)" fill="#194382"/>
  </g>
</svg>
