<svg id="Component_2_1" data-name="Component 2 – 1" xmlns="http://www.w3.org/2000/svg" width="1920" height="510" viewBox="0 0 1920 510">
  <rect id="Rectangle_7" data-name="Rectangle 7" width="1920" height="510" fill="#444"/>
  <path id="Path_138" data-name="Path 138" d="M28.833,21.776l-4.141-4.141a2.754,2.754,0,0,0-4.585,1.035,2.818,2.818,0,0,1-3.253,1.775c-2.958-.74-6.951-4.585-7.69-7.69A2.68,2.68,0,0,1,10.939,9.5a2.754,2.754,0,0,0,1.035-4.585L7.833.776a2.954,2.954,0,0,0-3.993,0l-2.81,2.81c-2.81,2.958.3,10.8,7.246,17.747s14.789,10.2,17.746,7.246l2.81-2.81A2.953,2.953,0,0,0,28.833,21.776Z" transform="translate(1596.727 135)" fill="#e5a604"/>
  <g id="Group_11" data-name="Group 11" transform="translate(0 -2848)">
    <path id="Path_139" data-name="Path 139" d="M20.131,45.493c0-.034.023-.067.022-.1L11.117,54.1l9.025,8.428c.005-.06-.011-.121-.011-.182Z" transform="translate(1606.184 3021.612)" fill="#e5a604"/>
    <path id="Path_140" data-name="Path 140" d="M18.543,50.821,14.855,54.37a.965.965,0,0,1-1.327.011L9.849,50.953.765,59.709a2.093,2.093,0,0,0,.706.141H26.9a2.092,2.092,0,0,0,1.015-.28Z" transform="translate(1597.378 3026.229)" fill="#e5a604"/>
    <path id="Path_141" data-name="Path 141" d="M14.464,57.894,28.254,44.61a2.09,2.09,0,0,0-1.065-.31H1.76a2.1,2.1,0,0,0-1.334.5Z" transform="translate(1597.09 3020.682)" fill="#e5a604"/>
    <path id="Path_142" data-name="Path 142" d="M0,45.622V62.15a2.1,2.1,0,0,0,.091.548l8.971-8.639Z" transform="translate(1596.727 3021.807)" fill="#e5a604"/>
  </g>
  <path id="Path_143" data-name="Path 143" d="M12.536,82A9.871,9.871,0,0,0,3.851,96.56L12,111.292a.617.617,0,0,0,1.079,0l8.148-14.736A9.872,9.872,0,0,0,12.536,82Zm0,14.8a4.935,4.935,0,1,1,4.935-4.935A4.941,4.941,0,0,1,12.536,96.8Z" transform="translate(1599.333 204.751)" fill="#e5a604"/>
  <text id="_00963_992_522_803" data-name="00963 992 522 803" transform="translate(1565 158)" fill="#fff" font-size="24" font-family="Cairo-Regular, Cairo"><tspan x="-204" y="0">00963 992 522 803</tspan></text>
  <text id="من_نحن_" data-name="من نحن؟" transform="translate(1174 158)" fill="#fff" font-size="24" font-family="Cairo-Regular, Cairo"><tspan x="-85.824" y="0">من نحن؟</tspan></text>
  <text id="فريقنا" transform="translate(1174 235)" fill="#fff" font-size="24" font-family="Cairo-Regular, Cairo"><tspan x="-59.568" y="0">فريقنا</tspan></text>
  <text id="تواصل_معنا" data-name="تواصل معنا" transform="translate(1174 312)" fill="#fff" font-size="24" font-family="Cairo-Regular, Cairo"><tspan x="-113.28" y="0">تواصل معنا</tspan></text>
  <text id="info_maps.com" data-name="info@maps.com" transform="translate(1565 235)" fill="#fff" font-size="24" font-family="Cairo-Regular, Cairo"><tspan x="-166.416" y="0">info@maps.com</tspan></text>
  <text id="تركيا_-_إسطنبول_-_الفاتح" data-name="تركيا - إسطنبول - الفاتح" transform="translate(1565 310)" fill="#fff" font-size="24" font-family="Cairo-Regular, Cairo"><tspan x="-229.992" y="0">تركيا - إسطنبول - الفاتح</tspan></text>
  <path id="Path_144" data-name="Path 144" d="M0,1H1363" transform="translate(279 356)" fill="none" stroke="#fff" stroke-width="0.5" opacity="0.4"/>
  <g id="Group_12" data-name="Group 12" transform="translate(1 -2848)">
    <g id="facebook" transform="translate(1552 3237)">
      <path id="Path_137" data-name="Path 137" d="M25.249,12.7A12.635,12.635,0,0,1,14.592,25.17v-8.8h2.934l.559-3.64H14.592V10.369A1.82,1.82,0,0,1,16.643,8.4h1.588V5.3a19.35,19.35,0,0,0-2.818-.246c-2.876,0-4.755,1.743-4.755,4.9V12.73H7.46v3.64h3.2v8.8A12.625,12.625,0,1,1,25.249,12.7Z" transform="translate(0 -0.073)" fill="#e5a604"/>
    </g>
    <path id="Logo_00000038394049246713568260000012923108920998390947_" d="M22.664,7.357c.015.222.015.445.015.669A14.639,14.639,0,0,1,7.94,22.765v0A14.662,14.662,0,0,1,0,20.439a10.5,10.5,0,0,0,1.233.075,10.4,10.4,0,0,0,6.433-2.222,5.186,5.186,0,0,1-4.839-3.6,5.183,5.183,0,0,0,2.339-.088A5.181,5.181,0,0,1,1.01,9.527V9.462a5.135,5.135,0,0,0,2.351.648,5.184,5.184,0,0,1-1.6-6.915A14.709,14.709,0,0,0,12.433,8.608a5.185,5.185,0,0,1,8.828-4.725,10.387,10.387,0,0,0,3.29-1.257,5.2,5.2,0,0,1-2.278,2.866,10.406,10.406,0,0,0,2.976-.816A10.529,10.529,0,0,1,22.664,7.357Z" transform="translate(1595 3236.75)" fill="#e5a604"/>
    <path id="Path_145" data-name="Path 145" d="M54.374,0H35.624A1.6,1.6,0,0,0,34,1.586V20.413A1.608,1.608,0,0,0,35.624,22H54.374A1.611,1.611,0,0,0,56,20.417V1.586A1.608,1.608,0,0,0,54.374,0ZM40.528,18.749H37.262V8.247h3.266ZM38.895,6.816a1.891,1.891,0,1,1,1.891-1.891A1.892,1.892,0,0,1,38.895,6.816ZM52.749,18.749H49.488V13.644c0-1.216-.021-2.785-1.7-2.785-1.7,0-1.955,1.328-1.955,2.7v5.191H42.578V8.247h3.128V9.682h.043a3.427,3.427,0,0,1,3.086-1.7c3.3,0,3.915,2.174,3.915,5Z" transform="translate(1478 3239)" fill="#e5a604"/>
    <path id="Path_146" data-name="Path 146" d="M29.337,6.869a6.38,6.38,0,0,0-1.181-2.94,4.243,4.243,0,0,0-2.969-1.256c-4.144-.3-10.366-.3-10.366-.3H14.81s-6.222,0-10.366.3A4.243,4.243,0,0,0,1.476,3.929,6.348,6.348,0,0,0,.3,6.869a44.245,44.245,0,0,0-.3,4.8v2.246a45.1,45.1,0,0,0,.3,4.8A6.417,6.417,0,0,0,1.47,21.65a5.052,5.052,0,0,0,3.27,1.268c2.373.226,10.076.3,10.076.3s6.227-.012,10.371-.307a4.243,4.243,0,0,0,2.969-1.256,6.38,6.38,0,0,0,1.181-2.94,44.946,44.946,0,0,0,.3-4.8V11.667A45.092,45.092,0,0,0,29.337,6.869ZM11.755,16.639V8.31l8,4.179Z" transform="translate(1464 3236.628)" fill="#e5a604"/>
  </g>
  <g id="Group_1037" data-name="Group 1037" transform="translate(1406.518 -7.411)">
    <g id="Group_1035" data-name="Group 1035" transform="translate(61.348 48.524)">
      <path id="Path_149" data-name="Path 149" d="M76.243,89.838c.486-2.244,2.064.581,2.064.581s-.509-3.6-2.535-2.657c-1.427.663-.834,7.888,2.025,8.8A8.043,8.043,0,0,1,76.243,89.838Z" transform="translate(-75.027 -69.198)" fill="#fff"/>
      <path id="Path_150" data-name="Path 150" d="M102.273,105.148c-1.142-.288-.724-2.345-2.169-3.724a9.029,9.029,0,0,0-6.365-2.232c-7.08.127-8.111,4.942-8.534,5.956s-1.031.507-1.922-.8S80.1,95.179,80.1,95.179a28.067,28.067,0,0,0,.358,7.608c.808,4.342,1.8,9.679,6.408,12.583a13.193,13.193,0,0,0,13.283.175c5.55-3.258,6.5-10.144,6.816-12.448.388-2.815.423-7.918.423-7.918h0c-.056,1.825-.4,6.768-3.188,9.166C103.78,104.7,103.022,105.336,102.273,105.148Zm-3.751,3.591a7.585,7.585,0,0,0-4.448-2.07,1.22,1.22,0,0,0-.669,0,7.585,7.585,0,0,0-4.448,2.07s-3.517-1.732-1.547-4.435c1.395-1.915,3.989-1.965,5.384-1.831a9.882,9.882,0,0,0,1.89,0c1.4-.134,3.99-.084,5.384,1.831C102.039,107.007,98.522,108.738,98.522,108.738Z" transform="translate(-77.049 -72.287)" fill="#fff"/>
      <path id="Path_151" data-name="Path 151" d="M87.674,71.432c8-2.793,11.565-2.112,11.565-2.112-5.751-2.2-11.816,1.6-16.768,1.288s-4.84-3.485-4.84-3.485S76.586,75.3,87.674,71.432Z" transform="translate(-76.078 -60.846)" fill="#fff"/>
      <path id="Path_152" data-name="Path 152" d="M128.385,87.762c-2.025-.941-2.534,2.657-2.534,2.657s1.578-2.825,2.064-.581a8.041,8.041,0,0,1-1.555,6.725C129.219,95.649,129.812,88.425,128.385,87.762Z" transform="translate(-95.753 -69.198)" fill="#fff"/>
      <path id="Path_153" data-name="Path 153" d="M107.217,67.768c-.253-1.816-.781-5.6-4.161-8.251A12.715,12.715,0,0,0,98.9,57.46a20.255,20.255,0,0,0-9.7-.614c-3.033.587-4.29,1.623-7.609,1.585a5.432,5.432,0,0,1-3.2-.775H76.319a7.559,7.559,0,0,0,.5,2.535A6.644,6.644,0,0,0,78.4,62.677a7.565,7.565,0,0,0,3.079,1.8c2.158.592,3.939-.244,5.99-.876,1.312-.4,8.21-2.391,13.217.171a10.385,10.385,0,0,1,4.148,4,10.854,10.854,0,0,1,1.336,7.886A15.257,15.257,0,0,0,107.217,67.768Z" transform="translate(-75.554 -56.523)" fill="#fff"/>
      <path id="Path_154" data-name="Path 154" d="M107.908,83.382a.618.618,0,0,0-.515-.653c-.59-.17-.606-.961-.606-.961-1-1.461-4.954-1.476-5.641-1.476-2.7,0-4.066.937-7.6,3.558a1.678,1.678,0,0,1-1.462,0c-3.531-2.62-4.9-3.558-7.6-3.558-.688,0-4.643.015-5.641,1.476,0,0-.017.791-.606.961a.618.618,0,0,0-.515.653c-.025.282-.146,1.074.47,1.314.182.071.289,1.273.434,1.7,2.131,6.338,8.254,6.2,10.889,3.686,2.04-1.947,1.9-4.889,3.31-4.889,1.367,0,1.261,2.957,3.286,4.889,2.655,2.532,8.76,2.649,10.889-3.686.145-.431.252-1.633.434-1.7C108.054,84.456,107.933,83.665,107.908,83.382Zm-16.645,2.06c-.164,2.454-2.68,5.723-5.9,5.723-4.4,0-7.292-5.626-5.892-8.1.543-.958,3.689-2.088,5.627-2.088C88.4,80.981,91.357,84.021,91.263,85.442Zm9.005,5.723c-3.191,0-5.733-3.248-5.9-5.723-.095-1.422,2.866-4.462,6.163-4.462,1.938,0,5.083,1.131,5.626,2.088C107.553,85.528,104.691,91.165,100.268,91.165Z" transform="translate(-76.117 -66.216)" fill="#fff"/>
    </g>
    <rect id="Rectangle_18" data-name="Rectangle 18" width="1.684" height="1.517" transform="translate(56.187 36.909)" fill="#fff"/>
    <rect id="Rectangle_19" data-name="Rectangle 19" width="2.502" height="2.254" transform="translate(62.876 38.775)" fill="#fff"/>
    <rect id="Rectangle_20" data-name="Rectangle 20" width="2.068" height="1.863" transform="translate(62.059 47.091)" fill="#fff"/>
    <rect id="Rectangle_21" data-name="Rectangle 21" width="5.004" height="4.508" transform="translate(63.141 41.992)" fill="#fff"/>
    <rect id="Rectangle_22" data-name="Rectangle 22" width="5.346" height="4.816" transform="translate(56.74 39.453)" fill="#fff"/>
    <path id="Path_155" data-name="Path 155" d="M139.7,68.883V61.255c0-6.653-4.8-9.2-9.848-9.2h-.841V54.44h1.021c3.6,0,6.665,2.164,6.665,6.924v7.411c0,4.815,1.741,7.032,5.344,7.952-3.543.757-5.344,3.462-5.344,7.9v7.519c0,4.382-2.162,6.708-6.605,6.708h-1.081v2.381h.841c6,0,9.848-3.084,9.848-9.142V84.517c0-3.733.9-6.546,6.785-6.546V75.429C140.3,75.429,139.7,72.4,139.7,68.883Z" transform="translate(-35.694 -6.178)" fill="#e5a604"/>
    <path id="Path_156" data-name="Path 156" d="M52.416,68.681V61.254c0-4.771,3.421-6.939,7.446-6.939H61V51.929h-.939c-5.635,0-11,2.548-11,9.216V68.79c0,3.524-.671,6.56-7.58,6.56V77.9c6.574,0,7.58,2.819,7.58,6.56v7.59c0,6.072,4.293,9.162,11,9.162H61V98.823H59.794c-4.964,0-7.378-2.331-7.378-6.722V84.565c0-4.445-2.012-7.156-5.97-7.915C50.47,75.728,52.416,73.506,52.416,68.681Z" transform="translate(0 -6.125)" fill="#e5a604"/>
    <g id="Group_1036" data-name="Group 1036" transform="translate(117.041 62.495)">
      <path id="Path_157" data-name="Path 157" d="M177.747,83.963c2.6,0,3.5,1.36,3.815,2.158h3.861c-.419-2.3-2.605-5.051-7.673-5.051-5.643,0-8.678,3.71-8.678,8.32s2.85,8.138,7.963,8.138c2.968,0,4.324-.763,5.324-1.952a13.845,13.845,0,0,0,.252,1.616h2.778V88.142h-7.552V91.1h3.846v.249c0,1.882-1.218,3.269-3.89,3.269-3.218,0-4.683-2.316-4.683-5.414C173.111,86.266,174.516,83.963,177.747,83.963Z" transform="translate(-169.072 -80.503)" fill="#fff"/>
      <path id="Path_158" data-name="Path 158" d="M207.256,88.206c-4.23,0-6.424,2.857-6.424,6.12,0,2.944,1.711,6.09,6.452,6.09,3.717,0,5.459-1.8,6.157-3.856h-3.662a2.474,2.474,0,0,1-2.457,1.134,2.63,2.63,0,0,1-2.844-2.492h9.084c.02-.371.02-.583.02-.875C213.581,91.31,211.762,88.206,207.256,88.206Zm-2.734,4.753c.108-1.139.808-2.189,2.731-2.189a2.287,2.287,0,0,1,2.613,2.189Z" transform="translate(-182.024 -83.414)" fill="#fff"/>
      <path id="Path_159" data-name="Path 159" d="M231.85,88.206c-4.231,0-6.424,2.857-6.424,6.12,0,2.944,1.711,6.09,6.452,6.09,3.718,0,5.459-1.8,6.158-3.856h-3.663a2.472,2.472,0,0,1-2.456,1.134,2.63,2.63,0,0,1-2.845-2.492h9.084c.02-.371.02-.583.02-.875C238.175,91.31,236.357,88.206,231.85,88.206Zm-2.734,4.753c.109-1.139.808-2.189,2.731-2.189a2.288,2.288,0,0,1,2.613,2.189Z" transform="translate(-192.053 -83.414)" fill="#fff"/>
      <path id="Path_160" data-name="Path 160" d="M263.818,85.221H259.5c-1.473,1.526-3.807,3.774-4.961,5V80.114H250.88V96.8h3.662V93.267l1.816-1.573L259.9,96.8h4.426l-5.38-7.15Z" transform="translate(-202.433 -80.114)" fill="#fff"/>
      <path id="Path_161" data-name="Path 161" d="M281.056,92.66c-2.156-.319-2.527-.612-2.527-1.093,0-.409.245-.937,1.63-.937,1.639,0,2.054.619,2.214,1.164h3.608c-.168-1.661-1.6-3.588-5.69-3.588-4.018,0-5.349,1.974-5.349,3.728,0,1.412.611,3.042,5.025,3.665,2.318.319,2.824.635,2.824,1.283,0,.547-.431,1.032-2,1.032s-2.337-.544-2.629-1.37h-3.628c.364,2.538,2.846,3.873,6.013,3.873,4.228,0,5.831-1.745,5.831-3.858C286.378,94.949,285.758,93.37,281.056,92.66Z" transform="translate(-212.079 -83.414)" fill="#fff"/>
      <path id="Path_162" data-name="Path 162" d="M307.227,89.664v-.045a3,3,0,0,0,2.073-2.965c0-2.365-1.892-4.26-5.757-4.26-4.27,0-5.771,2.537-6.04,4.413h3.6a2.069,2.069,0,0,1,2.316-1.647c1.562,0,2.161.756,2.161,1.713,0,1.056-.613,1.521-2.391,1.521h-.926v2.814h1.261c1.778,0,2.652.646,2.652,1.984,0,1.354-.975,2.03-2.483,2.03-1.778,0-2.618-.776-2.891-1.884h-3.651c.364,2.518,2.209,4.707,6.341,4.707,4.269,0,6.4-2.041,6.4-4.732A3.636,3.636,0,0,0,307.227,89.664Z" transform="translate(-221.303 -81.044)" fill="#fff"/>
      <path id="Path_163" data-name="Path 163" d="M329.693,87.466a5,5,0,0,0-3.966,1.5c.11-2.186.87-3.846,2.834-3.846,1.39,0,1.98.577,2.247,1.283h3.53c-.289-2.006-1.975-4-5.574-4-5.028,0-6.726,4.01-6.726,7.961,0,5.13,2.552,7.687,6.538,7.687,3.424,0,6.334-1.942,6.334-5.653C334.91,89.37,332.667,87.466,329.693,87.466ZM328.6,95.2a2.606,2.606,0,0,1-2.686-2.726,2.309,2.309,0,0,1,2.611-2.266c1.927,0,2.714,1.033,2.714,2.463A2.433,2.433,0,0,1,328.6,95.2Z" transform="translate(-231.451 -81.044)" fill="#fff"/>
      <path id="Path_164" data-name="Path 164" d="M353.6,82.394c-4.456,0-6.586,3.547-6.586,7.818,0,4.393,2.158,7.833,6.541,7.833,4.654,0,6.524-3.441,6.524-7.97C360.076,85.91,357.9,82.394,353.6,82.394Zm-.005,12.8c-2.29,0-2.846-2.638-2.846-5.022,0-2.636.626-4.948,2.871-4.948,2.3,0,2.745,2.635,2.745,4.871C356.361,92.732,355.916,95.194,353.592,95.194Z" transform="translate(-241.635 -81.044)" fill="#fff"/>
    </g>
  </g>
</svg>
