<svg xmlns="http://www.w3.org/2000/svg" width="293.43" height="515" viewBox="0 0 293.43 515">
  <g id="Group_1033" data-name="Group 1033" transform="translate(-980 -1345)">
    <text id="هذا_النص_هو_مثال_لنص_يمكن_أن_يستبدل_في_نفس_المساحة_لقد_تم_توليد_هذا_النص_من_مولد_النص_العربى_حيث_يمكنك_أن_تولد_مثل_هذا_النص_أو_العديد_من_النصوص_الأخرى_إضافة_إلى_زيادة_عدد_الحروف_التى_يولدها_التطبيق._إذا_كنت_تحتاج_إلى_عدد_أكبر_من_الفقرات_يتيح_لك_مولد_النص" data-name="هذا النص هو مثال لنص يمكن أن يستبدل في نفس المساحة، لقد تم توليد هذا النص من مولد النص العربى، حيث يمكنك أن تولد مثل هذا النص أو العديد من النصوص الأخرى إضافة إلى زيادة عدد الحروف التى يولدها التطبيق.
إذا كنت تحتاج إلى عدد أكبر من الفقرات يتيح لك مولد النص" transform="translate(980 1679)" fill="#444" font-size="24" font-family="Cairo-Regular, Cairo"><tspan x="1" y="31">هذا النص هو مثال لنص يمكن</tspan><tspan y="31"> </tspan><tspan x="3.628" y="76">أن يستبدل في نفس المساحة،</tspan><tspan y="76"> </tspan><tspan x="21.376" y="121">لقد تم توليد هذا النص من</tspan><tspan y="121"> </tspan><tspan x="0.064" y="166">مولد النص العربى، حيث يمكنك</tspan><tspan y="166"> </tspan></text>
    <g id="Group_1027" data-name="Group 1027" transform="translate(980 1345)">
      <path id="Path_2" data-name="Path 2" d="M46.865,262.93c48.023,52.888,166.646,28.487,214.108-25.74s42.31-163.01-5.713-215.9S75.945,25.479,28.484,79.706-1.158,210.04,46.865,262.93Z" transform="translate(-0.609 -0.252)" fill="#fff"/>
      <text id="الصحة" transform="translate(144.856 187.162)" fill="#0a1b35" font-size="32" font-family="Cairo-Bold, Cairo" font-weight="700"><tspan x="-43.424" y="0">الصحة</tspan></text>
      <g id="Group_8" data-name="Group 8" transform="translate(152.258 52.757)">
        <g id="Group_6" data-name="Group 6" transform="translate(0.627 3.543)">
          <path id="Path_8" data-name="Path 8" d="M23.021,37.562c.2-1.053.349-2.121.621-3.159A19.254,19.254,0,0,1,42.766,20.082a19.854,19.854,0,0,1,12.071,4.83c.2.16.39.322.626.513.481-.378.95-.763,1.433-1.127A19.072,19.072,0,0,1,87.728,36.173a18.694,18.694,0,0,1-2.749,12.91.933.933,0,0,1-.677.385c-5.012.022-10.021.012-15.031.027a.756.756,0,0,1-.758-.5q-3.078-5.751-6.18-11.489a1.846,1.846,0,0,0-2.516-1.026A2.855,2.855,0,0,0,58.7,37.693c-2.405,5-4.769,10.024-7.145,15.04-.108.226-.221.449-.38.768-.164-.238-.295-.41-.412-.592Q48.431,49.25,46.1,45.588c-1.026-1.605-2.611-1.581-3.6.052-.7,1.156-1.379,2.327-2.1,3.468a.894.894,0,0,1-.628.363q-6.564.029-13.128,0a1.014,1.014,0,0,1-.714-.442,18.832,18.832,0,0,1-2.8-8.063,1.886,1.886,0,0,0-.108-.353Z" transform="translate(-23.021 -20.061)" fill="#e5a604"/>
          <path id="Path_9" data-name="Path 9" d="M25.556,40.028h.788c3.635,0,7.27-.015,10.9.007a2.2,2.2,0,0,0,2.13-1.193c.4-.714.839-1.4,1.3-2.165,1.625,2.55,3.2,5.022,4.776,7.5.2.319.4.645.611.96a1.9,1.9,0,0,0,3.443-.236c.785-1.613,1.536-3.24,2.3-4.86,1.7-3.586,3.4-7.169,5.144-10.856.15.258.265.439.368.628,1.59,2.955,3.2,5.9,4.761,8.87a2.315,2.315,0,0,0,2.283,1.36c4.268-.032,8.536-.012,12.807-.012h.807c-.172.209-.27.351-.39.471Q65.46,52.575,53.325,64.648a1.949,1.949,0,0,1-3.095-.022q-12.112-12.05-24.222-24.1C25.88,40.4,25.762,40.256,25.556,40.028Z" transform="translate(-19.334 -6.797)" fill="#e5a604"/>
        </g>
        <rect id="Rectangle_9" data-name="Rectangle 9" width="66.154" height="66.154" transform="translate(0 0)" fill="none"/>
      </g>
    </g>
  </g>
</svg>
