<svg xmlns="http://www.w3.org/2000/svg" width="293.43" height="515" viewBox="0 0 293.43 515">
  <g id="Group_1034" data-name="Group 1034" transform="translate(-1349 -1345)">
    <text id="هذا_النص_هو_مثال_لنص_يمكن_أن_يستبدل_في_نفس_المساحة_لقد_تم_توليد_هذا_النص_من_مولد_النص_العربى_حيث_يمكنك_أن_تولد_مثل_هذا_النص_أو_العديد_من_النصوص_الأخرى_إضافة_إلى_زيادة_عدد_الحروف_التى_يولدها_التطبيق._إذا_كنت_تحتاج_إلى_عدد_أكبر_من_الفقرات_يتيح_لك_مولد_النص" data-name="هذا النص هو مثال لنص يمكن أن يستبدل في نفس المساحة، لقد تم توليد هذا النص من مولد النص العربى، حيث يمكنك أن تولد مثل هذا النص أو العديد من النصوص الأخرى إضافة إلى زيادة عدد الحروف التى يولدها التطبيق.
إذا كنت تحتاج إلى عدد أكبر من الفقرات يتيح لك مولد النص" transform="translate(1349 1673)" fill="#444" font-size="24" font-family="Cairo-Regular, Cairo"><tspan x="1" y="31">هذا النص هو مثال لنص يمكن</tspan><tspan y="31"> </tspan><tspan x="3.628" y="76">أن يستبدل في نفس المساحة،</tspan><tspan y="76"> </tspan><tspan x="21.376" y="121">لقد تم توليد هذا النص من</tspan><tspan y="121"> </tspan><tspan x="0.064" y="166">مولد النص العربى، حيث يمكنك</tspan><tspan y="166"> </tspan></text>
    <g id="Group_1028" data-name="Group 1028" transform="translate(1349 1345)">
      <path id="Path_3" data-name="Path 3" d="M46.865,262.93c48.023,52.888,166.646,28.487,214.108-25.74s42.31-163.01-5.713-215.9S75.945,25.479,28.484,79.706-1.158,210.04,46.865,262.93Z" transform="translate(-0.609 -0.252)" fill="#fff"/>
      <text id="التعليم" transform="translate(145.119 187.162)" fill="#0a1b35" font-size="32" font-family="Cairo-Bold, Cairo" font-weight="700"><tspan x="-47.024" y="0">التعليم</tspan></text>
      <g id="Group_9" data-name="Group 9" transform="translate(152.2 52.757)">
        <g id="Group_5" data-name="Group 5" transform="translate(0 6.172)">
          <path id="Path_5" data-name="Path 5" d="M14.827,32.456a3.893,3.893,0,0,1,1.849-1.589q14.162-7.057,28.3-14.151a5.807,5.807,0,0,1,5.53,0q14.231,7.137,28.475,14.24c.809.4,1.6.855,1.654,1.868s-.717,1.485-1.46,1.943Q64.972,43.476,50.762,52.188a5.409,5.409,0,0,1-6.011.011Q30.506,43.487,16.287,34.731a9.767,9.767,0,0,1-1.46-1.376Z" transform="translate(-14.827 -16.015)" fill="#e5a604"/>
          <path id="Path_6" data-name="Path 6" d="M69.08,37.623c0,1.843-.046,3.687.011,5.528a7.657,7.657,0,0,1-2.238,5.565A20.355,20.355,0,0,1,59.6,53.582a40,40,0,0,1-19.686,2.869A36.094,36.094,0,0,1,26.584,52.72,17.091,17.091,0,0,1,20.327,47.7a7.021,7.021,0,0,1-1.412-4.246c.015-3.666,0-7.33.008-11A5.043,5.043,0,0,1,19,31.438a.923.923,0,0,1,1.431-.74,5.242,5.242,0,0,1,.673.372L39.227,42.184a8.525,8.525,0,0,0,9.566-.011q9.391-5.763,18.783-11.517a3.452,3.452,0,0,1,.5-.289c.464-.186.811-.069.92.45a4.47,4.47,0,0,1,.08.891Q69.085,34.666,69.08,37.623Z" transform="translate(-11.081 -2.942)" fill="#e5a604"/>
          <path id="Path_7" data-name="Path 7" d="M50.272,39.325c0,3.108.013,6.216-.011,9.323a1.38,1.38,0,0,0,.629,1.282,3.164,3.164,0,0,1,1.269,3.514A3.225,3.225,0,0,1,49.4,55.977a3.385,3.385,0,0,1-3.626-1.958,3.31,3.31,0,0,1,.92-3.951,1.79,1.79,0,0,0,.786-1.659c-.029-5.572.006-11.143-.036-16.715a2.08,2.08,0,0,1,1.2-2.181c.232-.109.443-.261.667-.389.778-.443.958-.349.96.56Q50.279,34.506,50.272,39.325Z" transform="translate(13.255 -4.241)" fill="#e5a604"/>
        </g>
        <rect id="Rectangle_10" data-name="Rectangle 10" width="65.104" height="65.104" transform="translate(0.523 0)" fill="none"/>
      </g>
    </g>
  </g>
</svg>
