<svg id="Iconly_Bold_Arrow_-_Down_Circle" data-name="Iconly/Bold/Arrow - Down Circle" xmlns="http://www.w3.org/2000/svg" width="43" height="43" viewBox="0 0 43 43">
  <g id="Arrow_-_Down_Circle" data-name="Arrow - Down Circle" transform="translate(0 0)">
    <path id="Arrow_-_Down_Circle-2" data-name="Arrow - Down Circle" d="M21.5,43A21.5,21.5,0,1,1,43,21.5,21.524,21.524,0,0,1,21.5,43ZM14.029,16.778a1.584,1.584,0,0,0-1.128.465,1.612,1.612,0,0,0-.485,1.161,1.562,1.562,0,0,0,.485,1.119l7.459,7.5a1.612,1.612,0,0,0,2.279,0l7.461-7.5a1.515,1.515,0,0,0,.472-1.118,1.612,1.612,0,0,0-.472-1.161,1.635,1.635,0,0,0-1.138-.465,1.576,1.576,0,0,0-1.141.486L21.5,23.607l-6.322-6.343A1.585,1.585,0,0,0,14.029,16.778Z" transform="translate(0 0)" fill="#e5a604"/>
  </g>
</svg>
