<svg id="Layer_1" data-name="Layer 1" xmlns="http://www.w3.org/2000/svg" viewBox="0 0 200 200"><defs><style>.cls-1{fill:#0a1b35;}.cls-2{fill:#e5a604;}</style></defs><rect class="cls-1" x="66.31" y="36.91" width="2.84" height="2.56"/><path class="cls-1" d="M60.83,106.45c1.41-6.48,6,1.67,6,1.67s-1.47-10.38-7.31-7.66c-4.12,1.91-2.41,22.76,5.84,25.39A23.18,23.18,0,0,1,60.83,106.45Z"/><path class="cls-1" d="M130.11,141.71c-3.29-.83-2.09-6.76-6.26-10.74-3.55-3.4-9.2-6.28-18.36-6.44-20.43.36-23.41,14.26-24.63,17.18s-3,1.47-5.54-2.31S66.12,113,66.12,113a80.65,80.65,0,0,0,1,22c2.33,12.53,5.2,27.93,18.49,36.31,11.25,7.1,26.9,7.22,38.33.51,16-9.4,18.75-29.28,19.67-35.92,1.12-8.13,1.22-22.85,1.22-22.85h0c-.16,5.26-1.15,19.53-9.2,26.45C134.46,140.43,132.27,142.26,130.11,141.71Zm-10.82,10.36s-3.94-4.58-12.84-6a3.65,3.65,0,0,0-1.93,0c-8.9,1.39-12.83,6-12.83,6s-10.15-5-4.47-12.79c4-5.53,11.51-5.67,15.54-5.29a27.67,27.67,0,0,0,5.46,0c4-.38,11.51-.24,15.53,5.29C129.43,147.08,119.29,152.07,119.29,152.07Z"/><path class="cls-1" d="M90.78,77.44c23.09-8.06,33.38-6.1,33.38-6.1C107.56,65,90.06,76,75.77,75.06s-14-10-14-10S58.79,88.61,90.78,77.44Z"/><path class="cls-1" d="M151.49,100.46c-5.84-2.72-7.31,7.66-7.31,7.66s4.55-8.15,5.95-1.67a23.19,23.19,0,0,1-4.48,19.4C153.9,123.22,155.61,102.37,151.49,100.46Z"/><path class="cls-1" d="M148.69,79.34c-.73-5.24-2.25-16.17-12-23.81a36.52,36.52,0,0,0-12-5.93,58.48,58.48,0,0,0-28-1.78c-8.75,1.7-12.38,4.69-22,4.58-4.45,0-7.1-.77-9.23-2.24h-6A21.74,21.74,0,0,0,61,57.48a19.31,19.31,0,0,0,4.55,7.17,21.84,21.84,0,0,0,8.88,5.19c6.23,1.71,11.37-.71,17.29-2.53,3.79-1.17,23.69-6.9,38.14.49a30,30,0,0,1,12,11.54,31.37,31.37,0,0,1,3.86,22.75A44.06,44.06,0,0,0,148.69,79.34Z"/><path class="cls-1" d="M149.06,96.42a1.78,1.78,0,0,0-1.48-1.88c-1.71-.49-1.75-2.77-1.75-2.77-2.88-4.22-14.3-4.26-16.28-4.26-7.79,0-11.74,2.7-21.93,10.27a4.88,4.88,0,0,1-4.22,0C93.21,90.21,89.27,87.51,81.48,87.51c-2,0-13.4,0-16.28,4.26,0,0,0,2.28-1.75,2.77A1.77,1.77,0,0,0,62,96.42c-.08.82-.43,3.1,1.35,3.8.53.2.84,3.67,1.25,4.92C70.72,123.43,88.39,123,96,115.77c5.88-5.62,5.47-14.1,9.55-14.1s3.64,8.53,9.48,14.1c7.66,7.31,25.28,7.65,31.42-10.63.42-1.25.73-4.72,1.26-4.92C149.48,99.52,149.13,97.24,149.06,96.42Zm-48,6c-.47,7.08-7.73,16.52-17,16.52-12.71,0-21-16.24-17-23.37,1.57-2.76,10.64-6,16.24-6C92.76,89.5,101.3,98.27,101,102.37Zm26,16.52c-9.21,0-16.55-9.38-17-16.52-.28-4.1,8.27-12.87,17.78-12.87,5.59,0,14.67,3.26,16.24,6C148,102.62,139.78,118.89,127,118.89Z"/><rect class="cls-1" x="61.73" y="18.76" width="7.22" height="6.5"/><rect class="cls-1" x="59.38" y="42.75" width="5.97" height="5.38"/><rect class="cls-1" x="62.5" y="28.04" width="14.44" height="13.01"/><rect class="cls-1" x="44.03" y="20.71" width="15.43" height="13.9"/><path class="cls-2" d="M180.42,87.81v-22c0-19.2-13.86-26.54-28.42-26.54h-2.42v6.87h2.94c10.4,0,19.24,6.24,19.24,20V87.5c0,13.89,5,20.29,15.42,22.94-10.23,2.19-15.42,10-15.42,22.8v21.69c0,12.65-6.24,19.36-19.06,19.36h-3.12v6.87H152c17.33,0,28.42-8.9,28.42-26.38V132.92C180.42,122.15,183,114,200,114V106.7C182.15,106.7,180.42,98,180.42,87.81Z"/><path class="cls-2" d="M31.55,87.38V66c0-13.77,9.87-20,21.49-20h3.29V39H53.62c-16.26,0-31.75,7.35-31.75,26.59V87.69c0,10.17-1.93,18.93-21.87,18.93V114c19,0,21.87,8.14,21.87,18.93v21.9c0,17.53,12.39,26.44,31.75,26.44h2.71v-6.88H52.84c-14.32,0-21.29-6.73-21.29-19.4V133.22c0-12.83-5.81-20.65-17.23-22.84C25.94,107.72,31.55,101.3,31.55,87.38Z"/></svg>